<?xml version="1.0" encoding="utf-8"?>
<!-- Generator: Adobe Illustrator 20.1.0, SVG Export Plug-In . SVG Version: 6.00 Build 0)  -->
<svg version="1.1" id="Layer_1" xmlns="http://www.w3.org/2000/svg" xmlns:xlink="http://www.w3.org/1999/xlink" x="0px" y="0px"
	 viewBox="0 0 960 826.5" style="enable-background:new 0 0 960 826.5;" xml:space="preserve">
<style type="text/css">
	.st0{fill:#FCD731;}
	.st1{fill:#333333;}
	.st2{clip-path:url(#SVGID_2_);fill:#F2F2F2;}
	.st3{clip-path:url(#SVGID_2_);fill:#FF6224;}
	.st4{fill:#F2F2F2;}
	.st5{clip-path:url(#SVGID_4_);fill:#333333;}
	.st6{clip-path:url(#SVGID_6_);fill:#333333;}
	.st7{fill:none;stroke:#333333;stroke-width:13;stroke-linecap:round;stroke-miterlimit:10;}
</style>
<rect x="0" y="0" class="st0" width="960" height="826.5"/>
<g>
	<path class="st1" d="M480,337.5c-79.9,0-162.1-1.4-221.1-11.5c-64.2-11-95.4-31.5-95.4-62.5c0-15.5,7.2-26.2,22.2-32.7
		c13-5.7,32-8.3,59.7-8.3c26.2,0,56.8,2.3,92.3,4.9c43.1,3.2,91.9,6.9,142.4,6.9c52.1,0,101.6-3.7,145.2-6.9
		c35-2.6,65.2-4.9,90.9-4.9c27.3,0,46,2.6,58.8,8.3c14.6,6.5,21.7,17.2,21.7,32.7c0,31-31.2,51.4-95.4,62.5
		C642.1,336.1,559.9,337.5,480,337.5z"/>
	<path class="st0" d="M716.1,223c49.6,0,79.9,8.6,79.9,40.5c0,67.2-148,73.5-316,73.5s-316-6.3-316-73.5c0-31.9,31.2-40.5,81.3-40.5
		c58.7,0,143.5,11.8,234.7,11.8C573.3,234.8,657.9,223,716.1,223 M716.1,222c-25.7,0-55.9,2.3-90.9,4.9c-43.6,3.3-93,6.9-145.1,6.9
		c-50.5,0-99.3-3.6-142.4-6.9c-35.5-2.6-66.1-4.9-92.3-4.9c-27.8,0-46.8,2.7-59.9,8.4c-15.1,6.6-22.5,17.4-22.5,33.1
		c0,16.4,8.8,30.1,26.2,40.7c15.8,9.6,38.6,16.9,69.6,22.2C317.9,336.6,400,338,480,338s162.1-1.4,221.2-11.6
		c31-5.3,53.8-12.6,69.6-22.2c17.4-10.6,26.2-24.3,26.2-40.7c0-15.7-7.2-26.5-22-33.1C762.2,224.7,743.5,222,716.1,222L716.1,222z"
		/>
</g>
<g>
	<defs>
		<path id="SVGID_1_" d="M480,234.8c-169,0-316-40.6-316,28.7c0,67.2,148,73.5,316,73.5s316-6.3,316-73.5
			C796,194.2,653,234.8,480,234.8z"/>
	</defs>
	<clipPath id="SVGID_2_">
		<use xlink:href="#SVGID_1_"  style="overflow:visible;"/>
	</clipPath>
	<path class="st2" d="M324.4,225.6c0,27.4,1,43.4,25,43.4s26.2-17.2,26.2-39.6L324.4,225.6z"/>
	<path class="st2" d="M415.4,231.4c0,14.6-6.1,48.6,16.9,48.6s33-1.1,33-46L415.4,231.4z"/>
	<path class="st2" d="M544.6,231.4c0,14.6,6.1,48.6-16.9,48.6s-33-1.1-33-46L544.6,231.4z"/>
	<path class="st2" d="M635.6,225.6c0,27.4-1,43.4-25,43.4s-26.2-17.2-26.2-39.6L635.6,225.6z"/>
	<path class="st3" d="M529,305c-28,0-28,11.6-49,11.6S459,305,431,305s-60.7-0.9-91,38l140,3l140-2C589.7,304.1,557,305,529,305z"/>
</g>
<g>
	<path class="st4" d="M203.3,171.1c8.4,20.3-16.4,6.8-36.7,15.2c-20.3,8.4-28.2,35.5-36.7,15.2s1.2-43.5,21.4-51.9
		S194.9,150.9,203.3,171.1z"/>
	<g>
		<defs>
			<path id="SVGID_3_" d="M203.3,171.1c8.4,20.3-16.4,6.8-36.7,15.2c-20.3,8.4-28.2,35.5-36.7,15.2s1.2-43.5,21.4-51.9
				S194.9,150.9,203.3,171.1z"/>
		</defs>
		<clipPath id="SVGID_4_">
			<use xlink:href="#SVGID_3_"  style="overflow:visible;"/>
		</clipPath>
		<circle class="st5" cx="165.4" cy="183.5" r="14.4"/>
	</g>
</g>
<g>
	<path class="st4" d="M756.7,171.1c-8.4,20.3,16.4,6.8,36.7,15.2c20.3,8.4,28.2,35.5,36.7,15.2s-1.2-43.5-21.4-51.9
		C788.3,141.3,765.1,150.9,756.7,171.1z"/>
	<g>
		<defs>
			<path id="SVGID_5_" d="M756.7,171.1c-8.4,20.3,16.4,6.8,36.7,15.2c20.3,8.4,28.2,35.5,36.7,15.2s-1.2-43.5-21.4-51.9
				C788.3,141.3,765.1,150.9,756.7,171.1z"/>
		</defs>
		<clipPath id="SVGID_6_">
			<use xlink:href="#SVGID_5_"  style="overflow:visible;"/>
		</clipPath>
		<circle class="st6" cx="794.6" cy="183.5" r="14.4"/>
	</g>
</g>
<line class="st7" x1="76.9" y1="149" x2="176" y2="97.6"/>
<line class="st7" x1="883.1" y1="149" x2="784" y2="97.6"/>
</svg>
